<svg version="1.1" xmlns="http://www.w3.org/2000/svg" xmlns:xlink="http://www.w3.org/1999/xlink" width="880.4" height="469.01650429449546"><defs/><g transform="translate(0,0)"><g><rect fill="#FFFFFF" stroke="none" x="0" y="0" width="880.4" height="469.01650429449546"/></g><g transform="translate(0,0) matrix(1,0,0,1,410,129.01650429449546)"><g><g transform="translate(0,0) scale(2.5,1.9)"><g><path fill="#FFFFFF" stroke="none" d="M 0 0 L 100 0 Q 100 0 100 0 L 100 100 Q 100 100 100 100 L 0 100 Q 0 100 0 100 L 0 0 Q 0 0 0 0 Z"/><g transform="scale(0.4,0.5263157894736842)"><path fill="none" stroke="none" d="M 0 0 L 250 0 Q 250 0 250 0 L 250 190 Q 250 190 250 190 L 0 190 Q 0 190 0 190 L 0 0 Q 0 0 0 0 Z"/><path fill="none" stroke="#333333" d="M 0 0 M 0 0 L 250 0 Q 250 0 250 0 L 250 190 Q 250 190 250 190 L 0 190 Q 0 190 0 190 L 0 0 Q 0 0 0 0 Z" stroke-miterlimit="10" stroke-width="2"/></g></g><g><g transform="scale(0.4,0.5263157894736842)"><path fill="rgb(0,0,0)" stroke="none" d="M 5 3.8 L 5 184.29999999999998 L 242.5 184.29999999999998 L 242.5 5.699999999999999 L 7.5 5.699999999999999 Z" fill-opacity="0" opacity="0"/><path fill="none" stroke="#3C7626" d="M 5 3.8 M 5 3.8 L 5 7.8 M 5 7.8 M 5 9.8 L 5 13.8 M 5 13.8 M 5 15.8 L 5 19.8 M 5 19.8 M 5 21.8 L 5 25.8 M 5 25.8 M 5 27.8 L 5 31.8 M 5 31.8 M 5 33.8 L 5 37.8 M 5 37.8 M 5 39.8 L 5 43.8 M 5 43.8 M 5 45.8 L 5 49.8 M 5 49.8 M 5 51.8 L 5 55.8 M 5 55.8 M 5 57.8 L 5 61.8 M 5 61.8 M 5 63.8 L 5 67.8 M 5 67.8 M 5 69.8 L 5 73.8 M 5 73.8 M 5 75.8 L 5 79.8 M 5 79.8 M 5 81.8 L 5 85.8 M 5 85.8 M 5 87.8 L 5 91.8 M 5 91.8 M 5 93.8 L 5 97.8 M 5 97.8 M 5 99.8 L 5 103.8 M 5 103.8 M 5 105.8 L 5 109.8 M 5 109.8 M 5 111.8 L 5 115.8 M 5 115.8 M 5 117.8 L 5 121.8 M 5 121.8 M 5 123.8 L 5 127.8 M 5 127.8 M 5 129.79999999999998 L 5 133.79999999999998 M 5 133.79999999999998 M 5 135.79999999999998 L 5 139.79999999999998 M 5 139.79999999999998 M 5 141.79999999999998 L 5 145.79999999999998 M 5 145.79999999999998 M 5 147.79999999999998 L 5 151.79999999999998 M 5 151.79999999999998 M 5 153.79999999999998 L 5 157.79999999999998 M 5 157.79999999999998 M 5 159.79999999999998 L 5 163.79999999999998 M 5 163.79999999999998 M 5 165.79999999999998 L 5 169.79999999999998 M 5 169.79999999999998 M 5 171.79999999999998 L 5 175.79999999999998 M 5 175.79999999999998 M 5 177.79999999999998 L 5 181.79999999999998 M 5 181.79999999999998 M 5 183.79999999999998 L 5 184.29999999999998 L 8.5 184.29999999999998 M 8.5 184.29999999999998 M 10.5 184.29999999999998 L 14.5 184.29999999999998 M 14.5 184.29999999999998 M 16.5 184.29999999999998 L 20.5 184.29999999999998 M 20.5 184.29999999999998 M 22.5 184.29999999999998 L 26.5 184.29999999999998 M 26.5 184.29999999999998 M 28.5 184.29999999999998 L 32.5 184.29999999999998 M 32.5 184.29999999999998 M 34.5 184.29999999999998 L 38.5 184.29999999999998 M 38.5 184.29999999999998 M 40.5 184.29999999999998 L 44.5 184.29999999999998 M 44.5 184.29999999999998 M 46.5 184.29999999999998 L 50.5 184.29999999999998 M 50.5 184.29999999999998 M 52.5 184.29999999999998 L 56.5 184.29999999999998 M 56.5 184.29999999999998 M 58.5 184.29999999999998 L 62.5 184.29999999999998 M 62.5 184.29999999999998 M 64.5 184.29999999999998 L 68.5 184.29999999999998 M 68.5 184.29999999999998 M 70.5 184.29999999999998 L 74.5 184.29999999999998 M 74.5 184.29999999999998 M 76.5 184.29999999999998 L 80.5 184.29999999999998 M 80.5 184.29999999999998 M 82.5 184.29999999999998 L 86.5 184.29999999999998 M 86.5 184.29999999999998 M 88.5 184.29999999999998 L 92.5 184.29999999999998 M 92.5 184.29999999999998 M 94.5 184.29999999999998 L 98.5 184.29999999999998 M 98.5 184.29999999999998 M 100.5 184.29999999999998 L 104.5 184.29999999999998 M 104.5 184.29999999999998 M 106.5 184.29999999999998 L 110.5 184.29999999999998 M 110.5 184.29999999999998 M 112.5 184.29999999999998 L 116.5 184.29999999999998 M 116.5 184.29999999999998 M 118.5 184.29999999999998 L 122.5 184.29999999999998 M 122.5 184.29999999999998 M 124.5 184.29999999999998 L 128.5 184.29999999999998 M 128.5 184.29999999999998 M 130.5 184.29999999999998 L 134.5 184.29999999999998 M 134.5 184.29999999999998 M 136.5 184.29999999999998 L 140.5 184.29999999999998 M 140.5 184.29999999999998 M 142.5 184.29999999999998 L 146.5 184.29999999999998 M 146.5 184.29999999999998 M 148.5 184.29999999999998 L 152.5 184.29999999999998 M 152.5 184.29999999999998 M 154.5 184.29999999999998 L 158.5 184.29999999999998 M 158.5 184.29999999999998 M 160.5 184.29999999999998 L 164.5 184.29999999999998 M 164.5 184.29999999999998 M 166.5 184.29999999999998 L 170.5 184.29999999999998 M 170.5 184.29999999999998 M 172.5 184.29999999999998 L 176.5 184.29999999999998 M 176.5 184.29999999999998 M 178.5 184.29999999999998 L 182.5 184.29999999999998 M 182.5 184.29999999999998 M 184.5 184.29999999999998 L 188.5 184.29999999999998 M 188.5 184.29999999999998 M 190.5 184.29999999999998 L 194.5 184.29999999999998 M 194.5 184.29999999999998 M 196.5 184.29999999999998 L 200.5 184.29999999999998 M 200.5 184.29999999999998 M 202.5 184.29999999999998 L 206.5 184.29999999999998 M 206.5 184.29999999999998 M 208.5 184.29999999999998 L 212.5 184.29999999999998 M 212.5 184.29999999999998 M 214.5 184.29999999999998 L 218.5 184.29999999999998 M 218.5 184.29999999999998 M 220.5 184.29999999999998 L 224.5 184.29999999999998 M 224.5 184.29999999999998 M 226.5 184.29999999999998 L 230.5 184.29999999999998 M 230.5 184.29999999999998 M 232.5 184.29999999999998 L 236.5 184.29999999999998 M 236.5 184.29999999999998 M 238.5 184.29999999999998 L 242.5 184.29999999999998 M 242.5 184.29999999999998 M 242.5 182.29999999999998 L 242.5 178.29999999999998 M 242.5 178.29999999999998 M 242.5 176.29999999999998 L 242.5 172.29999999999998 M 242.5 172.29999999999998 M 242.5 170.29999999999998 L 242.5 166.29999999999998 M 242.5 166.29999999999998 M 242.5 164.29999999999998 L 242.5 160.29999999999998 M 242.5 160.29999999999998 M 242.5 158.29999999999998 L 242.5 154.29999999999998 M 242.5 154.29999999999998 M 242.5 152.29999999999998 L 242.5 148.29999999999998 M 242.5 148.29999999999998 M 242.5 146.29999999999998 L 242.5 142.29999999999998 M 242.5 142.29999999999998 M 242.5 140.29999999999998 L 242.5 136.29999999999998 M 242.5 136.29999999999998 M 242.5 134.29999999999998 L 242.5 130.29999999999998 M 242.5 130.29999999999998 M 242.5 128.29999999999998 L 242.5 124.29999999999998 M 242.5 124.29999999999998 M 242.5 122.29999999999998 L 242.5 118.29999999999998 M 242.5 118.29999999999998 M 242.5 116.29999999999998 L 242.5 112.29999999999998 M 242.5 112.29999999999998 M 242.5 110.29999999999998 L 242.5 106.29999999999998 M 242.5 106.29999999999998 M 242.5 104.29999999999998 L 242.5 100.29999999999998 M 242.5 100.29999999999998 M 242.5 98.29999999999998 L 242.5 94.29999999999998 M 242.5 94.29999999999998 M 242.5 92.29999999999998 L 242.5 88.29999999999998 M 242.5 88.29999999999998 M 242.5 86.29999999999998 L 242.5 82.29999999999998 M 242.5 82.29999999999998 M 242.5 80.29999999999998 L 242.5 76.29999999999998 M 242.5 76.29999999999998 M 242.5 74.29999999999998 L 242.5 70.29999999999998 M 242.5 70.29999999999998 M 242.5 68.29999999999998 L 242.5 64.29999999999998 M 242.5 64.29999999999998 M 242.5 62.29999999999998 L 242.5 58.29999999999998 M 242.5 58.29999999999998 M 242.5 56.29999999999998 L 242.5 52.29999999999998 M 242.5 52.29999999999998 M 242.5 50.29999999999998 L 242.5 46.29999999999998 M 242.5 46.29999999999998 M 242.5 44.29999999999998 L 242.5 40.29999999999998 M 242.5 40.29999999999998 M 242.5 38.29999999999998 L 242.5 34.29999999999998 M 242.5 34.29999999999998 M 242.5 32.29999999999998 L 242.5 28.299999999999983 M 242.5 28.299999999999983 M 242.5 26.299999999999983 L 242.5 22.299999999999983 M 242.5 22.299999999999983 M 242.5 20.299999999999983 L 242.5 16.299999999999983 M 242.5 16.299999999999983 M 242.5 14.299999999999983 L 242.5 10.299999999999983 M 242.5 10.299999999999983 M 242.5 8.299999999999983 L 242.5 5.699999999999999 L 241.1 5.699999999999999 M 241.1 5.699999999999999 M 239.1 5.699999999999999 L 235.1 5.699999999999999 M 235.1 5.699999999999999 M 233.1 5.699999999999999 L 229.1 5.699999999999999 M 229.1 5.699999999999999 M 227.1 5.699999999999999 L 223.1 5.699999999999999 M 223.1 5.699999999999999 M 221.1 5.699999999999999 L 217.1 5.699999999999999 M 217.1 5.699999999999999 M 215.1 5.699999999999999 L 211.1 5.699999999999999 M 211.1 5.699999999999999 M 209.1 5.699999999999999 L 205.1 5.699999999999999 M 205.1 5.699999999999999 M 203.1 5.699999999999999 L 199.1 5.699999999999999 M 199.1 5.699999999999999 M 197.1 5.699999999999999 L 193.1 5.699999999999999 M 193.1 5.699999999999999 M 191.1 5.699999999999999 L 187.1 5.699999999999999 M 187.1 5.699999999999999 M 185.1 5.699999999999999 L 181.1 5.699999999999999 M 181.1 5.699999999999999 M 179.1 5.699999999999999 L 175.1 5.699999999999999 M 175.1 5.699999999999999 M 173.1 5.699999999999999 L 169.1 5.699999999999999 M 169.1 5.699999999999999 M 167.1 5.699999999999999 L 163.1 5.699999999999999 M 163.1 5.699999999999999 M 161.1 5.699999999999999 L 157.1 5.699999999999999 M 157.1 5.699999999999999 M 155.1 5.699999999999999 L 151.1 5.699999999999999 M 151.1 5.699999999999999 M 149.1 5.699999999999999 L 145.1 5.699999999999999 M 145.1 5.699999999999999 M 143.1 5.699999999999999 L 139.1 5.699999999999999 M 139.1 5.699999999999999 M 137.1 5.699999999999999 L 133.1 5.699999999999999 M 133.1 5.699999999999999 M 131.1 5.699999999999999 L 127.1 5.699999999999999 M 127.1 5.699999999999999 M 125.1 5.699999999999999 L 121.1 5.699999999999999 M 121.1 5.699999999999999 M 119.1 5.699999999999999 L 115.1 5.699999999999999 M 115.1 5.699999999999999 M 113.1 5.699999999999999 L 109.1 5.699999999999999 M 109.1 5.699999999999999 M 107.1 5.699999999999999 L 103.1 5.699999999999999 M 103.1 5.699999999999999 M 101.1 5.699999999999999 L 97.1 5.699999999999999 M 97.1 5.699999999999999 M 95.1 5.699999999999999 L 91.1 5.699999999999999 M 91.1 5.699999999999999 M 89.1 5.699999999999999 L 85.1 5.699999999999999 M 85.1 5.699999999999999 M 83.1 5.699999999999999 L 79.1 5.699999999999999 M 79.1 5.699999999999999 M 77.1 5.699999999999999 L 73.1 5.699999999999999 M 73.1 5.699999999999999 M 71.1 5.699999999999999 L 67.1 5.699999999999999 M 67.1 5.699999999999999 M 65.1 5.699999999999999 L 61.099999999999994 5.699999999999999 M 61.099999999999994 5.699999999999999 M 59.099999999999994 5.699999999999999 L 55.099999999999994 5.699999999999999 M 55.099999999999994 5.699999999999999 M 53.099999999999994 5.699999999999999 L 49.099999999999994 5.699999999999999 M 49.099999999999994 5.699999999999999 M 47.099999999999994 5.699999999999999 L 43.099999999999994 5.699999999999999 M 43.099999999999994 5.699999999999999 M 41.099999999999994 5.699999999999999 L 37.099999999999994 5.699999999999999 M 37.099999999999994 5.699999999999999 M 35.099999999999994 5.699999999999999 L 31.099999999999994 5.699999999999999 M 31.099999999999994 5.699999999999999 M 29.099999999999994 5.699999999999999 L 25.099999999999994 5.699999999999999 M 25.099999999999994 5.699999999999999 M 23.099999999999994 5.699999999999999 L 19.099999999999994 5.699999999999999 M 19.099999999999994 5.699999999999999 M 17.099999999999994 5.699999999999999 L 13.099999999999994 5.699999999999999 M 13.099999999999994 5.699999999999999 M 11.099999999999994 5.699999999999999 L 7.5 5.699999999999999 Z" stroke-miterlimit="10" stroke-width="2" opacity="0"/></g></g></g></g></g><g transform="scale(1,1) matrix(1,0,0,1,415,129.01650429449546) translate(2,88)"><text fill="#000000" stroke="none" font-family="Arial" font-size="12px" font-style="normal" font-weight="normal" text-decoration="none" x="87.50000000000004" y="11">Application</text></g><g transform="translate(0,0) matrix(1,0,0,1,160.0000000000001,129.01650429449546)"><g><g transform="translate(0,0) scale(1,0.75)"><g><g transform="scale(1,1.3333333333333333)"><path fill="#FFFFFF" stroke="none" d="M 20 0 L 100 0 L 100 75 L 0 75 L 0 15 L 20 0 Z"/><path fill="none" stroke="#333333" d="M 20 0 M 20 0 L 100 0 L 100 75 L 0 75 L 0 15 L 20 0 Z" stroke-miterlimit="10" stroke-width="2"/></g></g></g></g></g><g transform="scale(1,1) matrix(1,0,0,1,162.0000000000001,129.01650429449546) translate(2,23.5)"><text fill="#000000" stroke="none" font-family="Arial" font-size="12px" font-style="normal" font-weight="normal" text-decoration="none" x="32" y="11">Write</text><text fill="#000000" stroke="none" font-family="Arial" font-size="12px" font-style="normal" font-weight="normal" text-decoration="none" x="23" y="25">with Key</text></g><g transform="translate(0,0) matrix(1,0,0,1,160.0000000000001,244.01650429449546)"><g><g transform="translate(0,0) scale(1,0.75)"><g><g transform="scale(1,1.3333333333333333)"><path fill="#FFFFFF" stroke="none" d="M 20 0 L 100 0 L 100 75 L 0 75 L 0 15 L 20 0 Z"/><path fill="none" stroke="#333333" d="M 20 0 M 20 0 L 100 0 L 100 75 L 0 75 L 0 15 L 20 0 Z" stroke-miterlimit="10" stroke-width="2"/></g></g></g></g></g><g transform="scale(1,1) matrix(1,0,0,1,162.0000000000001,244.01650429449546) translate(2,23.5)"><text fill="#000000" stroke="none" font-family="Arial" font-size="12px" font-style="normal" font-weight="normal" text-decoration="none" x="31" y="11">Read</text><text fill="#000000" stroke="none" font-family="Arial" font-size="12px" font-style="normal" font-weight="normal" text-decoration="none" x="23" y="25">with Key</text></g><g transform="translate(0,0) matrix(1,0,0,1,380.0000000000001,289.01650429449546)"><g><g transform="translate(0,0) scale(0.675,0.6)"><g><g transform="scale(1.4814814814814814,1.6666666666666667)"><path fill="#FFFFFF" stroke="none" d="M 8.4375 0 L 75.9375 0 Q 59.06250000000001 30 75.9375 60 L 8.4375 60 Q -8.4375 30 8.4375 0 Z"/><path fill="none" stroke="#333333" d="M 8.4375 0 M 8.4375 0 L 75.9375 0 Q 59.06250000000001 30 75.9375 60 L 8.4375 60 Q -8.4375 30 8.4375 0 Z" stroke-miterlimit="10" stroke-width="2"/></g></g></g></g></g><g transform="scale(1,1) matrix(1,0,0,1,382.0000000000001,289.01650429449546) translate(2,9)"><text fill="#000000" stroke="none" font-family="Arial" font-size="12px" font-style="normal" font-weight="normal" text-decoration="none" x="17.25" y="11">App </text><text fill="#000000" stroke="none" font-family="Arial" font-size="12px" font-style="normal" font-weight="normal" text-decoration="none" x="0.75" y="25">contain its </text><text fill="#000000" stroke="none" font-family="Arial" font-size="12px" font-style="normal" font-weight="normal" text-decoration="none" x="7.25" y="39">own key</text></g><g transform="translate(0,0) matrix(1,0,0,1,285.0000000000001,176.0247564417432)"><g><g transform="translate(0,0) scale(0.95,0.95)"><g><g transform="scale(1.0526315789473684,1.0526315789473684)"><path fill="#FFFFFF" stroke="none" d="M -11.875 0 L 106.875 0 L 83.125 95 L 11.875 95 L -11.875 0 Z"/><path fill="none" stroke="#333333" d="M -11.875 0 M -11.875 0 L 106.875 0 L 83.125 95 L 11.875 95 L -11.875 0 Z" stroke-miterlimit="10" stroke-width="2"/></g></g></g></g></g><g transform="scale(1,1) matrix(1,0,0,1,287.0000000000001,176.0247564417432) translate(2,33.5)"><text fill="#000000" stroke="none" font-family="Arial" font-size="12px" font-style="normal" font-weight="normal" text-decoration="none" x="2.5" y="11">Cloud Storage </text><text fill="#000000" stroke="none" font-family="Arial" font-size="12px" font-style="normal" font-weight="normal" text-decoration="none" x="28" y="25">Login</text></g><g transform="translate(0,0) matrix(-1,1.224646798818428e-16,-1.224646798818428e-16,-1,310.0000000000001,204.01650429449546)"><g><g transform="translate(0,0) scale(0.5,0.15)"><g><g transform="scale(2,6.666666666666667)"><path fill="#FFFFFF" stroke="none" d="M 0 4.5 L 42.5 4.5 L 42.5 0 L 50 7.5 L 42.5 15 L 42.5 10.5 L 0 10.5 L 0 4.5 Z"/><path fill="none" stroke="#333333" d="M 0 4.5 M 0 4.5 L 42.5 4.5 L 42.5 0 L 50 7.5 L 42.5 15 L 42.5 10.5 L 0 10.5 L 0 4.5 Z" stroke-miterlimit="10" stroke-width="2"/></g></g></g></g></g><g transform="translate(0,0) matrix(-1,1.224646798818428e-16,-1.224646798818428e-16,-1,310.0000000000001,261.51650429449546)"><g><g transform="translate(0,0) scale(0.5,0.15)"><g><g transform="scale(2,6.666666666666667)"><path fill="#FFFFFF" stroke="none" d="M 0 4.5 L 42.5 4.5 L 42.5 0 L 50 7.5 L 42.5 15 L 42.5 10.5 L 0 10.5 L 0 4.5 Z"/><path fill="none" stroke="#333333" d="M 0 4.5 M 0 4.5 L 42.5 4.5 L 42.5 0 L 50 7.5 L 42.5 15 L 42.5 10.5 L 0 10.5 L 0 4.5 Z" stroke-miterlimit="10" stroke-width="2"/></g></g></g></g></g><g transform="translate(0,0) matrix(-1,1.224646798818428e-16,-1.224646798818428e-16,-1,430.0000000000001,231.51650429449546)"><g><g transform="translate(0,0) scale(0.5,0.15)"><g><g transform="scale(2,6.666666666666667)"><path fill="#FFFFFF" stroke="none" d="M 0 4.5 L 42.5 4.5 L 42.5 0 L 50 7.5 L 42.5 15 L 42.5 10.5 L 0 10.5 L 0 4.5 Z"/><path fill="none" stroke="#333333" d="M 0 4.5 M 0 4.5 L 42.5 4.5 L 42.5 0 L 50 7.5 L 42.5 15 L 42.5 10.5 L 0 10.5 L 0 4.5 Z" stroke-miterlimit="10" stroke-width="2"/></g></g></g></g></g><g transform="translate(0,0) matrix(1,0,0,1,382.5000000000001,60)"><g><g transform="translate(0,0) scale(0.95,0.95)"><g><g transform="scale(1.0526315789473684,1.0526315789473684)"><path fill="#FFFFFF" stroke="none" d="M 0 0 L 95 0 L 95 95 L 0 95 L 0 0 Z M 9.999999999999998 0 L 9.999999999999998 95 M 0 9.999999999999998 L 95 9.999999999999998"/><path fill="none" stroke="#333333" d="M 0 0 M 0 0 L 95 0 L 95 95 L 0 95 L 0 0 Z M 9.999999999999998 0 L 9.999999999999998 95 M 0 9.999999999999998 L 95 9.999999999999998" stroke-miterlimit="10" stroke-width="2"/></g></g></g></g></g><g transform="scale(1,1) matrix(1,0,0,1,384.5000000000001,60) translate(2,26.5)"><text fill="#000000" stroke="none" font-family="Arial" font-size="12px" font-style="normal" font-weight="normal" text-decoration="none" x="16.5" y="11">Write File </text><text fill="#000000" stroke="none" font-family="Arial" font-size="12px" font-style="normal" font-weight="normal" text-decoration="none" x="22" y="25">Upload </text><text fill="#000000" stroke="none" font-family="Arial" font-size="12px" font-style="normal" font-weight="normal" text-decoration="none" x="25" y="39">Queue</text></g><g transform="translate(0,0) matrix(1,0,0,1,640,110.26650429449546)"><g><g transform="translate(0,0) scale(1,0.375)"><g><g transform="scale(1,2.6666666666666665)"><path fill="#FFFFFF" stroke="none" d="M 0 0 L 81.25 0 C 91.60533905932738 0 100 8.39466094067262 100 18.75 C 100 29.10533905932738 91.60533905932738 37.5 81.25 37.5 L 0 37.5 L 0 0 Z"/><path fill="none" stroke="#333333" d="M 0 0 M 0 0 L 81.25 0 C 91.60533905932738 0 100 8.39466094067262 100 18.75 C 100 29.10533905932738 91.60533905932738 37.5 81.25 37.5 L 0 37.5 L 0 0 Z" stroke-miterlimit="10" stroke-width="2"/></g></g></g></g></g><g transform="scale(1,1) matrix(1,0,0,1,642,110.26650429449546) translate(2,4.75)"><text fill="#000000" stroke="none" font-family="Arial" font-size="12px" font-style="normal" font-weight="normal" text-decoration="none" x="10.5" y="11">Encrypt With </text><text fill="#000000" stroke="none" font-family="Arial" font-size="12px" font-style="normal" font-weight="normal" text-decoration="none" x="22" y="25">Muti-Key</text></g><g transform="translate(0,0) matrix(1,0,0,1,700.2,239.01650429449546)"><g><g transform="translate(0,0) scale(0.7,0.15)"><g><g transform="scale(1.4285714285714286,6.666666666666667)"><path fill="#FFFFFF" stroke="none" d="M 0 4.5 L 62.5 4.5 L 62.5 0 L 70 7.5 L 62.5 15 L 62.5 10.5 L 0 10.5 L 0 4.5 Z"/><path fill="none" stroke="#333333" d="M 0 4.5 M 0 4.5 L 62.5 4.5 L 62.5 0 L 70 7.5 L 62.5 15 L 62.5 10.5 L 0 10.5 L 0 4.5 Z" stroke-miterlimit="10" stroke-width="2"/></g></g></g></g></g><g transform="translate(0,0) matrix(1,0,0,1,619.8,229.01650429449546)"><g><g transform="translate(0,0) scale(0.8,0.4)"><g><path fill="#FFFFFF" stroke="none" d="M 0 0 L 100 0 Q 100 0 100 0 L 100 100 Q 100 100 100 100 L 0 100 Q 0 100 0 100 L 0 0 Q 0 0 0 0 Z"/><g transform="scale(1.25,2.5)"><path fill="none" stroke="none" d="M 0 0 L 80 0 Q 80 0 80 0 L 80 40 Q 80 40 80 40 L 0 40 Q 0 40 0 40 L 0 0 Q 0 0 0 0 Z"/><path fill="none" stroke="#333333" d="M 0 0 M 0 0 L 80 0 Q 80 0 80 0 L 80 40 Q 80 40 80 40 L 0 40 Q 0 40 0 40 L 0 0 Q 0 0 0 0 Z" stroke-miterlimit="10" stroke-width="2"/></g></g><g><g transform="scale(1.25,2.5)"><path fill="rgb(0,0,0)" stroke="none" d="M 1.6 0.8 L 1.6 38.800000000000004 L 77.60000000000001 38.800000000000004 L 77.60000000000001 1.2000000000000002 L 2.4000000000000004 1.2000000000000002 Z" fill-opacity="0" opacity="0"/><path fill="none" stroke="#3C7626" d="M 1.6 0.8 M 1.6 0.8 L 1.6 4.8 M 1.6 4.8 M 1.6 6.8 L 1.6 10.8 M 1.6 10.8 M 1.6 12.8 L 1.6 16.8 M 1.6 16.8 M 1.6 18.8 L 1.6 22.8 M 1.6 22.8 M 1.6 24.8 L 1.6 28.8 M 1.6 28.8 M 1.6 30.8 L 1.6 34.8 M 1.6 34.8 M 1.6 36.8 L 1.6 38.800000000000004 L 3.599999999999993 38.800000000000004 M 3.599999999999993 38.800000000000004 M 5.5999999999999925 38.800000000000004 L 9.599999999999993 38.800000000000004 M 9.599999999999993 38.800000000000004 M 11.599999999999993 38.800000000000004 L 15.599999999999993 38.800000000000004 M 15.599999999999993 38.800000000000004 M 17.599999999999994 38.800000000000004 L 21.599999999999994 38.800000000000004 M 21.599999999999994 38.800000000000004 M 23.599999999999994 38.800000000000004 L 27.599999999999994 38.800000000000004 M 27.599999999999994 38.800000000000004 M 29.599999999999994 38.800000000000004 L 33.599999999999994 38.800000000000004 M 33.599999999999994 38.800000000000004 M 35.599999999999994 38.800000000000004 L 39.599999999999994 38.800000000000004 M 39.599999999999994 38.800000000000004 M 41.599999999999994 38.800000000000004 L 45.599999999999994 38.800000000000004 M 45.599999999999994 38.800000000000004 M 47.599999999999994 38.800000000000004 L 51.599999999999994 38.800000000000004 M 51.599999999999994 38.800000000000004 M 53.599999999999994 38.800000000000004 L 57.599999999999994 38.800000000000004 M 57.599999999999994 38.800000000000004 M 59.599999999999994 38.800000000000004 L 63.599999999999994 38.800000000000004 M 63.599999999999994 38.800000000000004 M 65.6 38.800000000000004 L 69.6 38.800000000000004 M 69.6 38.800000000000004 M 71.6 38.800000000000004 L 75.6 38.800000000000004 M 75.6 38.800000000000004 M 77.6 38.800000000000004 L 77.60000000000001 38.800000000000004 L 77.60000000000001 34.80000000000002 M 77.60000000000001 34.80000000000002 M 77.60000000000001 32.80000000000002 L 77.60000000000001 28.80000000000002 M 77.60000000000001 28.80000000000002 M 77.60000000000001 26.80000000000002 L 77.60000000000001 22.80000000000002 M 77.60000000000001 22.80000000000002 M 77.60000000000001 20.80000000000002 L 77.60000000000001 16.80000000000002 M 77.60000000000001 16.80000000000002 M 77.60000000000001 14.800000000000018 L 77.60000000000001 10.800000000000018 M 77.60000000000001 10.800000000000018 M 77.60000000000001 8.800000000000018 L 77.60000000000001 4.8000000000000185 M 77.60000000000001 4.8000000000000185 M 77.60000000000001 2.8000000000000185 L 77.60000000000001 1.2000000000000002 L 75.20000000000003 1.2000000000000002 M 75.20000000000003 1.2000000000000002 M 73.20000000000003 1.2000000000000002 L 69.20000000000003 1.2000000000000002 M 69.20000000000003 1.2000000000000002 M 67.20000000000003 1.2000000000000002 L 63.20000000000003 1.2000000000000002 M 63.20000000000003 1.2000000000000002 M 61.20000000000003 1.2000000000000002 L 57.20000000000003 1.2000000000000002 M 57.20000000000003 1.2000000000000002 M 55.20000000000003 1.2000000000000002 L 51.20000000000003 1.2000000000000002 M 51.20000000000003 1.2000000000000002 M 49.20000000000003 1.2000000000000002 L 45.20000000000003 1.2000000000000002 M 45.20000000000003 1.2000000000000002 M 43.20000000000003 1.2000000000000002 L 39.20000000000003 1.2000000000000002 M 39.20000000000003 1.2000000000000002 M 37.20000000000003 1.2000000000000002 L 33.20000000000003 1.2000000000000002 M 33.20000000000003 1.2000000000000002 M 31.20000000000003 1.2000000000000002 L 27.20000000000003 1.2000000000000002 M 27.20000000000003 1.2000000000000002 M 25.20000000000003 1.2000000000000002 L 21.20000000000003 1.2000000000000002 M 21.20000000000003 1.2000000000000002 M 19.20000000000003 1.2000000000000002 L 15.200000000000031 1.2000000000000002 M 15.200000000000031 1.2000000000000002 M 13.200000000000031 1.2000000000000002 L 9.200000000000031 1.2000000000000002 M 9.200000000000031 1.2000000000000002 M 7.200000000000031 1.2000000000000002 L 3.2000000000000313 1.2000000000000002 M 3.2000000000000313 1.2000000000000002 Z" stroke-miterlimit="10" stroke-width="2" opacity="0"/></g></g></g></g></g><g transform="scale(1,1) matrix(1,0,0,1,621.4,229.01650429449546) translate(2,6)"><text fill="#000000" stroke="none" font-family="Arial" font-size="12px" font-style="normal" font-weight="normal" text-decoration="none" x="7.400000000000006" y="11">Get Online</text><text fill="#000000" stroke="none" font-family="Arial" font-size="12px" font-style="normal" font-weight="normal" text-decoration="none" x="0.4000000000000057" y="25">Directory Info</text></g><g transform="translate(0,0) matrix(1,0,0,1,770.2,216.51650429449546)"><g><g transform="translate(0,0) scale(0.9,0.65)"><g><path fill="#FFFFFF" stroke="none" d="M 0 0 L 100 0 Q 100 0 100 0 L 100 100 Q 100 100 100 100 L 0 100 Q 0 100 0 100 L 0 0 Q 0 0 0 0 Z"/><g transform="scale(1.1111111111111112,1.5384615384615383)"><path fill="none" stroke="none" d="M 0 0 L 90 0 Q 90 0 90 0 L 90 65 Q 90 65 90 65 L 0 65 Q 0 65 0 65 L 0 0 Q 0 0 0 0 Z"/><path fill="none" stroke="#333333" d="M 0 0 M 0 0 L 90 0 Q 90 0 90 0 L 90 65 Q 90 65 90 65 L 0 65 Q 0 65 0 65 L 0 0 Q 0 0 0 0 Z" stroke-miterlimit="10" stroke-width="2"/></g></g><g><g transform="scale(1.1111111111111112,1.5384615384615383)"><path fill="rgb(0,0,0)" stroke="none" d="M 1.8 1.3 L 1.8 63.050000000000004 L 87.3 63.050000000000004 L 87.3 1.9500000000000002 L 2.7 1.9500000000000002 Z" fill-opacity="0" opacity="0"/><path fill="none" stroke="#3C7626" d="M 1.8 1.3 M 1.8 1.3 L 1.8 5.3 M 1.8 5.3 M 1.8 7.3 L 1.8 11.299999999999999 M 1.8 11.299999999999999 M 1.8 13.299999999999999 L 1.8 17.299999999999997 M 1.8 17.299999999999997 M 1.8 19.299999999999997 L 1.8 23.299999999999997 M 1.8 23.299999999999997 M 1.8 25.299999999999997 L 1.8 29.299999999999997 M 1.8 29.299999999999997 M 1.8 31.299999999999997 L 1.8 35.3 M 1.8 35.3 M 1.8 37.3 L 1.8 41.3 M 1.8 41.3 M 1.8 43.3 L 1.8 47.3 M 1.8 47.3 M 1.8 49.3 L 1.8 53.3 M 1.8 53.3 M 1.8 55.3 L 1.8 59.3 M 1.8 59.3 M 1.8 61.3 L 1.8 63.050000000000004 L 4.049999999999993 63.050000000000004 M 4.049999999999993 63.050000000000004 M 6.049999999999993 63.050000000000004 L 10.049999999999994 63.050000000000004 M 10.049999999999994 63.050000000000004 M 12.049999999999994 63.050000000000004 L 16.049999999999994 63.050000000000004 M 16.049999999999994 63.050000000000004 M 18.049999999999994 63.050000000000004 L 22.049999999999994 63.050000000000004 M 22.049999999999994 63.050000000000004 M 24.049999999999994 63.050000000000004 L 28.049999999999994 63.050000000000004 M 28.049999999999994 63.050000000000004 M 30.049999999999994 63.050000000000004 L 34.05 63.050000000000004 M 34.05 63.050000000000004 M 36.05 63.050000000000004 L 40.05 63.050000000000004 M 40.05 63.050000000000004 M 42.05 63.050000000000004 L 46.05 63.050000000000004 M 46.05 63.050000000000004 M 48.05 63.050000000000004 L 52.05 63.050000000000004 M 52.05 63.050000000000004 M 54.05 63.050000000000004 L 58.05 63.050000000000004 M 58.05 63.050000000000004 M 60.05 63.050000000000004 L 64.05 63.050000000000004 M 64.05 63.050000000000004 M 66.05 63.050000000000004 L 70.05 63.050000000000004 M 70.05 63.050000000000004 M 72.05 63.050000000000004 L 76.05 63.050000000000004 M 76.05 63.050000000000004 M 78.05 63.050000000000004 L 82.05 63.050000000000004 M 82.05 63.050000000000004 M 84.05 63.050000000000004 L 87.3 63.050000000000004 L 87.3 62.300000000000004 M 87.3 62.300000000000004 M 87.3 60.300000000000004 L 87.3 56.300000000000004 M 87.3 56.300000000000004 M 87.3 54.300000000000004 L 87.3 50.300000000000004 M 87.3 50.300000000000004 M 87.3 48.300000000000004 L 87.3 44.300000000000004 M 87.3 44.300000000000004 M 87.3 42.300000000000004 L 87.3 38.300000000000004 M 87.3 38.300000000000004 M 87.3 36.300000000000004 L 87.3 32.300000000000004 M 87.3 32.300000000000004 M 87.3 30.300000000000004 L 87.3 26.300000000000004 M 87.3 26.300000000000004 M 87.3 24.300000000000004 L 87.3 20.300000000000004 M 87.3 20.300000000000004 M 87.3 18.300000000000004 L 87.3 14.300000000000004 M 87.3 14.300000000000004 M 87.3 12.300000000000004 L 87.3 8.300000000000004 M 87.3 8.300000000000004 M 87.3 6.300000000000004 L 87.3 2.3000000000000043 M 87.3 2.3000000000000043 M 85.65 1.9500000000000002 L 81.65 1.9500000000000002 M 81.65 1.9500000000000002 M 79.65 1.9500000000000002 L 75.65 1.9500000000000002 M 75.65 1.9500000000000002 M 73.65 1.9500000000000002 L 69.65 1.9500000000000002 M 69.65 1.9500000000000002 M 67.65 1.9500000000000002 L 63.650000000000006 1.9500000000000002 M 63.650000000000006 1.9500000000000002 M 61.650000000000006 1.9500000000000002 L 57.650000000000006 1.9500000000000002 M 57.650000000000006 1.9500000000000002 M 55.650000000000006 1.9500000000000002 L 51.650000000000006 1.9500000000000002 M 51.650000000000006 1.9500000000000002 M 49.650000000000006 1.9500000000000002 L 45.650000000000006 1.9500000000000002 M 45.650000000000006 1.9500000000000002 M 43.650000000000006 1.9500000000000002 L 39.650000000000006 1.9500000000000002 M 39.650000000000006 1.9500000000000002 M 37.650000000000006 1.9500000000000002 L 33.650000000000006 1.9500000000000002 M 33.650000000000006 1.9500000000000002 M 31.650000000000006 1.9500000000000002 L 27.650000000000006 1.9500000000000002 M 27.650000000000006 1.9500000000000002 M 25.650000000000006 1.9500000000000002 L 21.650000000000006 1.9500000000000002 M 21.650000000000006 1.9500000000000002 M 19.650000000000006 1.9500000000000002 L 15.650000000000006 1.9500000000000002 M 15.650000000000006 1.9500000000000002 M 13.650000000000006 1.9500000000000002 L 9.650000000000006 1.9500000000000002 M 9.650000000000006 1.9500000000000002 M 7.650000000000006 1.9500000000000002 L 3.6500000000000057 1.9500000000000002 M 3.6500000000000057 1.9500000000000002 Z" stroke-miterlimit="10" stroke-width="2" opacity="0"/></g></g></g></g></g><g transform="scale(1,1) matrix(1,0,0,1,772,216.51650429449546) translate(2,11.5)"><text fill="#000000" stroke="none" font-family="Arial" font-size="12px" font-style="normal" font-weight="normal" text-decoration="none" x="14.700000000000003" y="11">Recreate&#160;</text><text fill="#000000" stroke="none" font-family="Arial" font-size="12px" font-style="normal" font-weight="normal" text-decoration="none" x="8.700000000000003" y="25">Directory In </text><text fill="#000000" stroke="none" font-family="Arial" font-size="12px" font-style="normal" font-weight="normal" text-decoration="none" x="3.200000000000003" y="39">Local Storage</text></g><g transform="translate(0,0) matrix(1,0,0,1,770.2,300)"><g><g transform="translate(0,0) scale(0.9,0.65)"><g><path fill="#FFFFFF" stroke="none" d="M 0 0 L 100 0 Q 100 0 100 0 L 100 100 Q 100 100 100 100 L 0 100 Q 0 100 0 100 L 0 0 Q 0 0 0 0 Z"/><g transform="scale(1.1111111111111112,1.5384615384615383)"><path fill="none" stroke="none" d="M 0 0 L 90 0 Q 90 0 90 0 L 90 65 Q 90 65 90 65 L 0 65 Q 0 65 0 65 L 0 0 Q 0 0 0 0 Z"/><path fill="none" stroke="#333333" d="M 0 0 M 0 0 L 90 0 Q 90 0 90 0 L 90 65 Q 90 65 90 65 L 0 65 Q 0 65 0 65 L 0 0 Q 0 0 0 0 Z" stroke-miterlimit="10" stroke-width="2"/></g></g><g><g transform="scale(1.1111111111111112,1.5384615384615383)"><path fill="rgb(0,0,0)" stroke="none" d="M 1.8 1.3 L 1.8 63.050000000000004 L 87.3 63.050000000000004 L 87.3 1.9500000000000002 L 2.7 1.9500000000000002 Z" fill-opacity="0" opacity="0"/><path fill="none" stroke="#3C7626" d="M 1.8 1.3 M 1.8 1.3 L 1.8 5.3 M 1.8 5.3 M 1.8 7.3 L 1.8 11.299999999999999 M 1.8 11.299999999999999 M 1.8 13.299999999999999 L 1.8 17.299999999999997 M 1.8 17.299999999999997 M 1.8 19.299999999999997 L 1.8 23.299999999999997 M 1.8 23.299999999999997 M 1.8 25.299999999999997 L 1.8 29.299999999999997 M 1.8 29.299999999999997 M 1.8 31.299999999999997 L 1.8 35.3 M 1.8 35.3 M 1.8 37.3 L 1.8 41.3 M 1.8 41.3 M 1.8 43.3 L 1.8 47.3 M 1.8 47.3 M 1.8 49.3 L 1.8 53.3 M 1.8 53.3 M 1.8 55.3 L 1.8 59.3 M 1.8 59.3 M 1.8 61.3 L 1.8 63.050000000000004 L 4.049999999999993 63.050000000000004 M 4.049999999999993 63.050000000000004 M 6.049999999999993 63.050000000000004 L 10.049999999999994 63.050000000000004 M 10.049999999999994 63.050000000000004 M 12.049999999999994 63.050000000000004 L 16.049999999999994 63.050000000000004 M 16.049999999999994 63.050000000000004 M 18.049999999999994 63.050000000000004 L 22.049999999999994 63.050000000000004 M 22.049999999999994 63.050000000000004 M 24.049999999999994 63.050000000000004 L 28.049999999999994 63.050000000000004 M 28.049999999999994 63.050000000000004 M 30.049999999999994 63.050000000000004 L 34.05 63.050000000000004 M 34.05 63.050000000000004 M 36.05 63.050000000000004 L 40.05 63.050000000000004 M 40.05 63.050000000000004 M 42.05 63.050000000000004 L 46.05 63.050000000000004 M 46.05 63.050000000000004 M 48.05 63.050000000000004 L 52.05 63.050000000000004 M 52.05 63.050000000000004 M 54.05 63.050000000000004 L 58.05 63.050000000000004 M 58.05 63.050000000000004 M 60.05 63.050000000000004 L 64.05 63.050000000000004 M 64.05 63.050000000000004 M 66.05 63.050000000000004 L 70.05 63.050000000000004 M 70.05 63.050000000000004 M 72.05 63.050000000000004 L 76.05 63.050000000000004 M 76.05 63.050000000000004 M 78.05 63.050000000000004 L 82.05 63.050000000000004 M 82.05 63.050000000000004 M 84.05 63.050000000000004 L 87.3 63.050000000000004 L 87.3 62.300000000000004 M 87.3 62.300000000000004 M 87.3 60.300000000000004 L 87.3 56.300000000000004 M 87.3 56.300000000000004 M 87.3 54.300000000000004 L 87.3 50.300000000000004 M 87.3 50.300000000000004 M 87.3 48.300000000000004 L 87.3 44.300000000000004 M 87.3 44.300000000000004 M 87.3 42.300000000000004 L 87.3 38.300000000000004 M 87.3 38.300000000000004 M 87.3 36.300000000000004 L 87.3 32.300000000000004 M 87.3 32.300000000000004 M 87.3 30.300000000000004 L 87.3 26.300000000000004 M 87.3 26.300000000000004 M 87.3 24.300000000000004 L 87.3 20.300000000000004 M 87.3 20.300000000000004 M 87.3 18.300000000000004 L 87.3 14.300000000000004 M 87.3 14.300000000000004 M 87.3 12.300000000000004 L 87.3 8.300000000000004 M 87.3 8.300000000000004 M 87.3 6.300000000000004 L 87.3 2.3000000000000043 M 87.3 2.3000000000000043 M 85.65 1.9500000000000002 L 81.65 1.9500000000000002 M 81.65 1.9500000000000002 M 79.65 1.9500000000000002 L 75.65 1.9500000000000002 M 75.65 1.9500000000000002 M 73.65 1.9500000000000002 L 69.65 1.9500000000000002 M 69.65 1.9500000000000002 M 67.65 1.9500000000000002 L 63.650000000000006 1.9500000000000002 M 63.650000000000006 1.9500000000000002 M 61.650000000000006 1.9500000000000002 L 57.650000000000006 1.9500000000000002 M 57.650000000000006 1.9500000000000002 M 55.650000000000006 1.9500000000000002 L 51.650000000000006 1.9500000000000002 M 51.650000000000006 1.9500000000000002 M 49.650000000000006 1.9500000000000002 L 45.650000000000006 1.9500000000000002 M 45.650000000000006 1.9500000000000002 M 43.650000000000006 1.9500000000000002 L 39.650000000000006 1.9500000000000002 M 39.650000000000006 1.9500000000000002 M 37.650000000000006 1.9500000000000002 L 33.650000000000006 1.9500000000000002 M 33.650000000000006 1.9500000000000002 M 31.650000000000006 1.9500000000000002 L 27.650000000000006 1.9500000000000002 M 27.650000000000006 1.9500000000000002 M 25.650000000000006 1.9500000000000002 L 21.650000000000006 1.9500000000000002 M 21.650000000000006 1.9500000000000002 M 19.650000000000006 1.9500000000000002 L 15.650000000000006 1.9500000000000002 M 15.650000000000006 1.9500000000000002 M 13.650000000000006 1.9500000000000002 L 9.650000000000006 1.9500000000000002 M 9.650000000000006 1.9500000000000002 M 7.650000000000006 1.9500000000000002 L 3.6500000000000057 1.9500000000000002 M 3.6500000000000057 1.9500000000000002 Z" stroke-miterlimit="10" stroke-width="2" opacity="0"/></g></g></g></g></g><g transform="scale(1,1) matrix(1,0,0,1,772,300) translate(2,11.5)"><text fill="#000000" stroke="none" font-family="Arial" font-size="12px" font-style="normal" font-weight="normal" text-decoration="none" x="11.200000000000003" y="11">Create File</text><text fill="#000000" stroke="none" font-family="Arial" font-size="12px" font-style="normal" font-weight="normal" text-decoration="none" x="6.200000000000003" y="25">Observer for </text><text fill="#000000" stroke="none" font-family="Arial" font-size="12px" font-style="normal" font-weight="normal" text-decoration="none" x="8.200000000000003" y="39">Remote File</text></g><g transform="translate(0,0) matrix(0,1,-1,0,822.5,272.5)"><g><g transform="translate(0,0) scale(0.3,0.15)"><g><g transform="scale(3.3333333333333335,6.666666666666667)"><path fill="#FFFFFF" stroke="none" d="M 0 4.5 L 22.5 4.5 L 22.5 0 L 30 7.5 L 22.5 15 L 22.5 10.5 L 0 10.5 L 0 4.5 Z"/><path fill="none" stroke="#333333" d="M 0 4.5 M 0 4.5 L 22.5 4.5 L 22.5 0 L 30 7.5 L 22.5 15 L 22.5 10.5 L 0 10.5 L 0 4.5 Z" stroke-miterlimit="10" stroke-width="2"/></g></g></g></g></g><g transform="translate(0,0) matrix(1,0,0,1,510,289.01650429449546)"><g><g transform="translate(0,0) scale(0.8,0.6)"><g><path fill="#FFFFFF" stroke="none" d="M 0 0 L 100 0 Q 100 0 100 0 L 100 100 Q 100 100 100 100 L 0 100 Q 0 100 0 100 L 0 0 Q 0 0 0 0 Z"/><g transform="scale(1.25,1.6666666666666667)"><path fill="none" stroke="none" d="M 0 0 L 80 0 Q 80 0 80 0 L 80 60 Q 80 60 80 60 L 0 60 Q 0 60 0 60 L 0 0 Q 0 0 0 0 Z"/><path fill="none" stroke="#333333" d="M 0 0 M 0 0 L 80 0 Q 80 0 80 0 L 80 60 Q 80 60 80 60 L 0 60 Q 0 60 0 60 L 0 0 Q 0 0 0 0 Z" stroke-miterlimit="10" stroke-width="2"/></g></g><g><g transform="scale(1.25,1.6666666666666667)"><path fill="rgb(0,0,0)" stroke="none" d="M 1.6 1.2 L 1.6 58.199999999999996 L 77.60000000000001 58.199999999999996 L 77.60000000000001 1.7999999999999998 L 2.4000000000000004 1.7999999999999998 Z" fill-opacity="0" opacity="0"/><path fill="none" stroke="#3C7626" d="M 1.6 1.2 M 1.6 1.2 L 1.6 5.2 M 1.6 5.2 M 1.6 7.2 L 1.6 11.2 M 1.6 11.2 M 1.6 13.2 L 1.6 17.2 M 1.6 17.2 M 1.6 19.2 L 1.6 23.2 M 1.6 23.2 M 1.6 25.2 L 1.6 29.2 M 1.6 29.2 M 1.6 31.2 L 1.6 35.2 M 1.6 35.2 M 1.6 37.2 L 1.6 41.2 M 1.6 41.2 M 1.6 43.2 L 1.6 47.2 M 1.6 47.2 M 1.6 49.2 L 1.6 53.2 M 1.6 53.2 M 1.6 55.2 L 1.6 58.199999999999996 L 2.600000000000007 58.199999999999996 M 2.600000000000007 58.199999999999996 M 4.600000000000007 58.199999999999996 L 8.600000000000007 58.199999999999996 M 8.600000000000007 58.199999999999996 M 10.600000000000007 58.199999999999996 L 14.600000000000007 58.199999999999996 M 14.600000000000007 58.199999999999996 M 16.60000000000001 58.199999999999996 L 20.60000000000001 58.199999999999996 M 20.60000000000001 58.199999999999996 M 22.60000000000001 58.199999999999996 L 26.60000000000001 58.199999999999996 M 26.60000000000001 58.199999999999996 M 28.60000000000001 58.199999999999996 L 32.60000000000001 58.199999999999996 M 32.60000000000001 58.199999999999996 M 34.60000000000001 58.199999999999996 L 38.60000000000001 58.199999999999996 M 38.60000000000001 58.199999999999996 M 40.60000000000001 58.199999999999996 L 44.60000000000001 58.199999999999996 M 44.60000000000001 58.199999999999996 M 46.60000000000001 58.199999999999996 L 50.60000000000001 58.199999999999996 M 50.60000000000001 58.199999999999996 M 52.60000000000001 58.199999999999996 L 56.60000000000001 58.199999999999996 M 56.60000000000001 58.199999999999996 M 58.60000000000001 58.199999999999996 L 62.60000000000001 58.199999999999996 M 62.60000000000001 58.199999999999996 M 64.60000000000001 58.199999999999996 L 68.60000000000001 58.199999999999996 M 68.60000000000001 58.199999999999996 M 70.60000000000001 58.199999999999996 L 74.60000000000001 58.199999999999996 M 74.60000000000001 58.199999999999996 M 76.60000000000001 58.199999999999996 L 77.60000000000001 58.199999999999996 L 77.60000000000001 55.199999999999996 M 77.60000000000001 55.199999999999996 M 77.60000000000001 53.199999999999996 L 77.60000000000001 49.199999999999996 M 77.60000000000001 49.199999999999996 M 77.60000000000001 47.199999999999996 L 77.60000000000001 43.199999999999996 M 77.60000000000001 43.199999999999996 M 77.60000000000001 41.199999999999996 L 77.60000000000001 37.199999999999996 M 77.60000000000001 37.199999999999996 M 77.60000000000001 35.199999999999996 L 77.60000000000001 31.199999999999996 M 77.60000000000001 31.199999999999996 M 77.60000000000001 29.199999999999996 L 77.60000000000001 25.199999999999996 M 77.60000000000001 25.199999999999996 M 77.60000000000001 23.199999999999996 L 77.60000000000001 19.199999999999996 M 77.60000000000001 19.199999999999996 M 77.60000000000001 17.199999999999996 L 77.60000000000001 13.199999999999996 M 77.60000000000001 13.199999999999996 M 77.60000000000001 11.199999999999996 L 77.60000000000001 7.199999999999996 M 77.60000000000001 7.199999999999996 M 77.60000000000001 5.199999999999996 L 77.60000000000001 1.7999999999999998 L 77 1.7999999999999998 M 77 1.7999999999999998 M 75 1.7999999999999998 L 71 1.7999999999999998 M 71 1.7999999999999998 M 69 1.7999999999999998 L 65 1.7999999999999998 M 65 1.7999999999999998 M 63 1.7999999999999998 L 59 1.7999999999999998 M 59 1.7999999999999998 M 57 1.7999999999999998 L 53 1.7999999999999998 M 53 1.7999999999999998 M 51 1.7999999999999998 L 47 1.7999999999999998 M 47 1.7999999999999998 M 45 1.7999999999999998 L 41 1.7999999999999998 M 41 1.7999999999999998 M 39 1.7999999999999998 L 35 1.7999999999999998 M 35 1.7999999999999998 M 33 1.7999999999999998 L 29 1.7999999999999998 M 29 1.7999999999999998 M 27 1.7999999999999998 L 23 1.7999999999999998 M 23 1.7999999999999998 M 21 1.7999999999999998 L 17 1.7999999999999998 M 17 1.7999999999999998 M 15 1.7999999999999998 L 11 1.7999999999999998 M 11 1.7999999999999998 M 9 1.7999999999999998 L 5 1.7999999999999998 M 5 1.7999999999999998 M 3 1.7999999999999998 L 2.4000000000000004 1.7999999999999998 Z" stroke-miterlimit="10" stroke-width="2" opacity="0"/></g></g></g></g></g><g transform="scale(1,1) matrix(1,0,0,1,512,289.01650429449546) translate(2,2)"><text fill="#000000" stroke="none" font-family="Arial" font-size="12px" font-style="normal" font-weight="normal" text-decoration="none" x="2" y="11">Callback for </text><text fill="#000000" stroke="none" font-family="Arial" font-size="12px" font-style="normal" font-weight="normal" text-decoration="none" x="1" y="25">FileObserver</text><text fill="#000000" stroke="none" font-family="Arial" font-size="12px" font-style="normal" font-weight="normal" text-decoration="none" x="7.5" y="39"> to do Pull </text><text fill="#000000" stroke="none" font-family="Arial" font-size="12px" font-style="normal" font-weight="normal" text-decoration="none" x="11.5" y="53">Request&#160;</text></g><g transform="translate(0,0) matrix(1,0,0,1,685.2,349.01650429449546)"><g><g transform="translate(0,0) scale(1,1)"><g><g transform="scale(1,1)"><path fill="#FFFFFF" stroke="none" d="M 50 0 L 100 50 L 50 100 L 0 50 L 50 0 Z"/><path fill="none" stroke="#333333" d="M 50 0 M 50 0 L 100 50 L 50 100 L 0 50 L 50 0 Z" stroke-miterlimit="10" stroke-width="2"/></g></g></g></g></g><g transform="scale(1,1) matrix(1,0,0,1,687.2,349.01650429449546) translate(2,22)"><text fill="#000000" stroke="none" font-family="Arial" font-size="12px" font-style="normal" font-weight="normal" text-decoration="none" x="17.5" y="11">If External </text><text fill="#000000" stroke="none" font-family="Arial" font-size="12px" font-style="normal" font-weight="normal" text-decoration="none" x="7.5" y="25">Read&#160;</text><text fill="#000000" stroke="none" font-family="Arial" font-size="12px" font-style="normal" font-weight="normal" text-decoration="none" x="40.5" y="25">Happen</text><text fill="#000000" stroke="none" font-family="Arial" font-size="12px" font-style="normal" font-weight="normal" text-decoration="none" x="20" y="39">Pull From</text><text fill="#000000" stroke="none" font-family="Arial" font-size="12px" font-style="normal" font-weight="normal" text-decoration="none" x="29.5" y="53">Cloud</text></g><g transform="translate(0,0) matrix(1,0,0,1,569.8,349.01650429449546)"><g><g transform="translate(0,0) scale(1,1)"><g><g transform="scale(1,1)"><path fill="#FFFFFF" stroke="none" d="M 50 0 L 100 50 L 50 100 L 0 50 L 50 0 Z"/><path fill="none" stroke="#333333" d="M 50 0 M 50 0 L 100 50 L 50 100 L 0 50 L 50 0 Z" stroke-miterlimit="10" stroke-width="2"/></g></g></g></g></g><g transform="scale(1,1) matrix(1,0,0,1,571.8,349.01650429449546) translate(2,29)"><text fill="#000000" stroke="none" font-family="Arial" font-size="12px" font-style="normal" font-weight="normal" text-decoration="none" x="11.5" y="11">Request File</text><text fill="#000000" stroke="none" font-family="Arial" font-size="12px" font-style="normal" font-weight="normal" text-decoration="none" x="4" y="25">Add into Cache</text><text fill="#000000" stroke="none" font-family="Arial" font-size="12px" font-style="normal" font-weight="normal" text-decoration="none" x="27.5" y="39">Queue</text></g><g transform="translate(0,0) matrix(0.5,0.8660254037844387,-0.8660254037844387,0.5,552.7003175473055,345.6818966601196)"><g><g transform="translate(0,0) scale(0.475,0.25)"><g><g transform="scale(2.1052631578947367,4)"><path fill="#FFFFFF" stroke="none" d="M 0 12.5 L 12.5 0 L 12.5 7.5 L 47.5 7.5 L 47.5 17.5 L 12.5 17.5 L 12.5 25 L 0 12.5 Z"/><path fill="none" stroke="#333333" d="M 0 12.5 M 0 12.5 L 12.5 0 L 12.5 7.5 L 47.5 7.5 L 47.5 17.5 L 12.5 17.5 L 12.5 25 L 0 12.5 Z" stroke-miterlimit="10" stroke-width="2"/></g></g></g></g></g><g transform="translate(0,0) matrix(-0.7071067811865474,0.7071067811865476,-0.7071067811865476,-0.7071067811865474,800.9099025766973,372.1966991411009)"><g><g transform="translate(0,0) scale(0.3,0.15)"><g><g transform="scale(3.3333333333333335,6.666666666666667)"><path fill="#FFFFFF" stroke="none" d="M 0 4.5 L 22.5 4.5 L 22.5 0 L 30 7.5 L 22.5 15 L 22.5 10.5 L 0 10.5 L 0 4.5 Z"/><path fill="none" stroke="#333333" d="M 0 4.5 M 0 4.5 L 22.5 4.5 L 22.5 0 L 30 7.5 L 22.5 15 L 22.5 10.5 L 0 10.5 L 0 4.5 Z" stroke-miterlimit="10" stroke-width="2"/></g></g></g></g></g><g transform="translate(0,0) matrix(-1,1.224646798818428e-16,-1.224646798818428e-16,-1,700.2,376.5900974233027)"><g><g transform="translate(0,0) scale(0.5,0.15)"><g><g transform="scale(2,6.666666666666667)"><path fill="#FFFFFF" stroke="none" d="M 0 4.5 L 42.5 4.5 L 42.5 0 L 50 7.5 L 42.5 15 L 42.5 10.5 L 0 10.5 L 0 4.5 Z"/><path fill="none" stroke="#333333" d="M 0 4.5 M 0 4.5 L 42.5 4.5 L 42.5 0 L 50 7.5 L 42.5 15 L 42.5 10.5 L 0 10.5 L 0 4.5 Z" stroke-miterlimit="10" stroke-width="2"/></g></g></g></g></g></g></svg>