<svg version="1.1" xmlns="http://www.w3.org/2000/svg" xmlns:xlink="http://www.w3.org/1999/xlink" width="880" height="442.5"><defs/><g transform="translate(0,0)"><g><rect fill="#FFFFFF" stroke="none" x="0" y="0" width="880" height="442.5"/></g><g transform="translate(0,0) matrix(1,0,0,1,560,232.5)"><g><g transform="translate(0,0) scale(2.5,1.9)"><g><path fill="#FFFFFF" stroke="none" d="M 0 0 L 100 0 Q 100 0 100 0 L 100 100 Q 100 100 100 100 L 0 100 Q 0 100 0 100 L 0 0 Q 0 0 0 0 Z"/><g transform="scale(0.4,0.5263157894736842)"><path fill="none" stroke="none" d="M 0 0 L 250 0 Q 250 0 250 0 L 250 190 Q 250 190 250 190 L 0 190 Q 0 190 0 190 L 0 0 Q 0 0 0 0 Z"/><path fill="none" stroke="#333333" d="M 0 0 M 0 0 L 250 0 Q 250 0 250 0 L 250 190 Q 250 190 250 190 L 0 190 Q 0 190 0 190 L 0 0 Q 0 0 0 0 Z" stroke-miterlimit="10" stroke-width="2"/></g></g><g><g transform="scale(0.4,0.5263157894736842)"><path fill="rgb(0,0,0)" stroke="none" d="M 5 3.8 L 5 184.29999999999998 L 242.5 184.29999999999998 L 242.5 5.699999999999999 L 7.5 5.699999999999999 Z" fill-opacity="0" opacity="0"/><path fill="none" stroke="#3C7626" d="M 5 3.8 M 5 3.8 L 5 7.8 M 5 7.8 M 5 9.8 L 5 13.8 M 5 13.8 M 5 15.8 L 5 19.8 M 5 19.8 M 5 21.8 L 5 25.8 M 5 25.8 M 5 27.8 L 5 31.8 M 5 31.8 M 5 33.8 L 5 37.8 M 5 37.8 M 5 39.8 L 5 43.8 M 5 43.8 M 5 45.8 L 5 49.8 M 5 49.8 M 5 51.8 L 5 55.8 M 5 55.8 M 5 57.8 L 5 61.8 M 5 61.8 M 5 63.8 L 5 67.8 M 5 67.8 M 5 69.8 L 5 73.8 M 5 73.8 M 5 75.8 L 5 79.8 M 5 79.8 M 5 81.8 L 5 85.8 M 5 85.8 M 5 87.8 L 5 91.8 M 5 91.8 M 5 93.8 L 5 97.8 M 5 97.8 M 5 99.8 L 5 103.8 M 5 103.8 M 5 105.8 L 5 109.8 M 5 109.8 M 5 111.8 L 5 115.8 M 5 115.8 M 5 117.8 L 5 121.8 M 5 121.8 M 5 123.8 L 5 127.8 M 5 127.8 M 5 129.79999999999998 L 5 133.79999999999998 M 5 133.79999999999998 M 5 135.79999999999998 L 5 139.79999999999998 M 5 139.79999999999998 M 5 141.79999999999998 L 5 145.79999999999998 M 5 145.79999999999998 M 5 147.79999999999998 L 5 151.79999999999998 M 5 151.79999999999998 M 5 153.79999999999998 L 5 157.79999999999998 M 5 157.79999999999998 M 5 159.79999999999998 L 5 163.79999999999998 M 5 163.79999999999998 M 5 165.79999999999998 L 5 169.79999999999998 M 5 169.79999999999998 M 5 171.79999999999998 L 5 175.79999999999998 M 5 175.79999999999998 M 5 177.79999999999998 L 5 181.79999999999998 M 5 181.79999999999998 M 5 183.79999999999998 L 5 184.29999999999998 L 8.5 184.29999999999998 M 8.5 184.29999999999998 M 10.5 184.29999999999998 L 14.5 184.29999999999998 M 14.5 184.29999999999998 M 16.5 184.29999999999998 L 20.5 184.29999999999998 M 20.5 184.29999999999998 M 22.5 184.29999999999998 L 26.5 184.29999999999998 M 26.5 184.29999999999998 M 28.5 184.29999999999998 L 32.5 184.29999999999998 M 32.5 184.29999999999998 M 34.5 184.29999999999998 L 38.5 184.29999999999998 M 38.5 184.29999999999998 M 40.5 184.29999999999998 L 44.5 184.29999999999998 M 44.5 184.29999999999998 M 46.5 184.29999999999998 L 50.5 184.29999999999998 M 50.5 184.29999999999998 M 52.5 184.29999999999998 L 56.5 184.29999999999998 M 56.5 184.29999999999998 M 58.5 184.29999999999998 L 62.5 184.29999999999998 M 62.5 184.29999999999998 M 64.5 184.29999999999998 L 68.5 184.29999999999998 M 68.5 184.29999999999998 M 70.5 184.29999999999998 L 74.5 184.29999999999998 M 74.5 184.29999999999998 M 76.5 184.29999999999998 L 80.5 184.29999999999998 M 80.5 184.29999999999998 M 82.5 184.29999999999998 L 86.5 184.29999999999998 M 86.5 184.29999999999998 M 88.5 184.29999999999998 L 92.5 184.29999999999998 M 92.5 184.29999999999998 M 94.5 184.29999999999998 L 98.5 184.29999999999998 M 98.5 184.29999999999998 M 100.5 184.29999999999998 L 104.5 184.29999999999998 M 104.5 184.29999999999998 M 106.5 184.29999999999998 L 110.5 184.29999999999998 M 110.5 184.29999999999998 M 112.5 184.29999999999998 L 116.5 184.29999999999998 M 116.5 184.29999999999998 M 118.5 184.29999999999998 L 122.5 184.29999999999998 M 122.5 184.29999999999998 M 124.5 184.29999999999998 L 128.5 184.29999999999998 M 128.5 184.29999999999998 M 130.5 184.29999999999998 L 134.5 184.29999999999998 M 134.5 184.29999999999998 M 136.5 184.29999999999998 L 140.5 184.29999999999998 M 140.5 184.29999999999998 M 142.5 184.29999999999998 L 146.5 184.29999999999998 M 146.5 184.29999999999998 M 148.5 184.29999999999998 L 152.5 184.29999999999998 M 152.5 184.29999999999998 M 154.5 184.29999999999998 L 158.5 184.29999999999998 M 158.5 184.29999999999998 M 160.5 184.29999999999998 L 164.5 184.29999999999998 M 164.5 184.29999999999998 M 166.5 184.29999999999998 L 170.5 184.29999999999998 M 170.5 184.29999999999998 M 172.5 184.29999999999998 L 176.5 184.29999999999998 M 176.5 184.29999999999998 M 178.5 184.29999999999998 L 182.5 184.29999999999998 M 182.5 184.29999999999998 M 184.5 184.29999999999998 L 188.5 184.29999999999998 M 188.5 184.29999999999998 M 190.5 184.29999999999998 L 194.5 184.29999999999998 M 194.5 184.29999999999998 M 196.5 184.29999999999998 L 200.5 184.29999999999998 M 200.5 184.29999999999998 M 202.5 184.29999999999998 L 206.5 184.29999999999998 M 206.5 184.29999999999998 M 208.5 184.29999999999998 L 212.5 184.29999999999998 M 212.5 184.29999999999998 M 214.5 184.29999999999998 L 218.5 184.29999999999998 M 218.5 184.29999999999998 M 220.5 184.29999999999998 L 224.5 184.29999999999998 M 224.5 184.29999999999998 M 226.5 184.29999999999998 L 230.5 184.29999999999998 M 230.5 184.29999999999998 M 232.5 184.29999999999998 L 236.5 184.29999999999998 M 236.5 184.29999999999998 M 238.5 184.29999999999998 L 242.5 184.29999999999998 M 242.5 184.29999999999998 M 242.5 182.29999999999998 L 242.5 178.29999999999998 M 242.5 178.29999999999998 M 242.5 176.29999999999998 L 242.5 172.29999999999998 M 242.5 172.29999999999998 M 242.5 170.29999999999998 L 242.5 166.29999999999998 M 242.5 166.29999999999998 M 242.5 164.29999999999998 L 242.5 160.29999999999998 M 242.5 160.29999999999998 M 242.5 158.29999999999998 L 242.5 154.29999999999998 M 242.5 154.29999999999998 M 242.5 152.29999999999998 L 242.5 148.29999999999998 M 242.5 148.29999999999998 M 242.5 146.29999999999998 L 242.5 142.29999999999998 M 242.5 142.29999999999998 M 242.5 140.29999999999998 L 242.5 136.29999999999998 M 242.5 136.29999999999998 M 242.5 134.29999999999998 L 242.5 130.29999999999998 M 242.5 130.29999999999998 M 242.5 128.29999999999998 L 242.5 124.29999999999998 M 242.5 124.29999999999998 M 242.5 122.29999999999998 L 242.5 118.29999999999998 M 242.5 118.29999999999998 M 242.5 116.29999999999998 L 242.5 112.29999999999998 M 242.5 112.29999999999998 M 242.5 110.29999999999998 L 242.5 106.29999999999998 M 242.5 106.29999999999998 M 242.5 104.29999999999998 L 242.5 100.29999999999998 M 242.5 100.29999999999998 M 242.5 98.29999999999998 L 242.5 94.29999999999998 M 242.5 94.29999999999998 M 242.5 92.29999999999998 L 242.5 88.29999999999998 M 242.5 88.29999999999998 M 242.5 86.29999999999998 L 242.5 82.29999999999998 M 242.5 82.29999999999998 M 242.5 80.29999999999998 L 242.5 76.29999999999998 M 242.5 76.29999999999998 M 242.5 74.29999999999998 L 242.5 70.29999999999998 M 242.5 70.29999999999998 M 242.5 68.29999999999998 L 242.5 64.29999999999998 M 242.5 64.29999999999998 M 242.5 62.29999999999998 L 242.5 58.29999999999998 M 242.5 58.29999999999998 M 242.5 56.29999999999998 L 242.5 52.29999999999998 M 242.5 52.29999999999998 M 242.5 50.29999999999998 L 242.5 46.29999999999998 M 242.5 46.29999999999998 M 242.5 44.29999999999998 L 242.5 40.29999999999998 M 242.5 40.29999999999998 M 242.5 38.29999999999998 L 242.5 34.29999999999998 M 242.5 34.29999999999998 M 242.5 32.29999999999998 L 242.5 28.299999999999983 M 242.5 28.299999999999983 M 242.5 26.299999999999983 L 242.5 22.299999999999983 M 242.5 22.299999999999983 M 242.5 20.299999999999983 L 242.5 16.299999999999983 M 242.5 16.299999999999983 M 242.5 14.299999999999983 L 242.5 10.299999999999983 M 242.5 10.299999999999983 M 242.5 8.299999999999983 L 242.5 5.699999999999999 L 241.1 5.699999999999999 M 241.1 5.699999999999999 M 239.1 5.699999999999999 L 235.1 5.699999999999999 M 235.1 5.699999999999999 M 233.1 5.699999999999999 L 229.1 5.699999999999999 M 229.1 5.699999999999999 M 227.1 5.699999999999999 L 223.1 5.699999999999999 M 223.1 5.699999999999999 M 221.1 5.699999999999999 L 217.1 5.699999999999999 M 217.1 5.699999999999999 M 215.1 5.699999999999999 L 211.1 5.699999999999999 M 211.1 5.699999999999999 M 209.1 5.699999999999999 L 205.1 5.699999999999999 M 205.1 5.699999999999999 M 203.1 5.699999999999999 L 199.1 5.699999999999999 M 199.1 5.699999999999999 M 197.1 5.699999999999999 L 193.1 5.699999999999999 M 193.1 5.699999999999999 M 191.1 5.699999999999999 L 187.1 5.699999999999999 M 187.1 5.699999999999999 M 185.1 5.699999999999999 L 181.1 5.699999999999999 M 181.1 5.699999999999999 M 179.1 5.699999999999999 L 175.1 5.699999999999999 M 175.1 5.699999999999999 M 173.1 5.699999999999999 L 169.1 5.699999999999999 M 169.1 5.699999999999999 M 167.1 5.699999999999999 L 163.1 5.699999999999999 M 163.1 5.699999999999999 M 161.1 5.699999999999999 L 157.1 5.699999999999999 M 157.1 5.699999999999999 M 155.1 5.699999999999999 L 151.1 5.699999999999999 M 151.1 5.699999999999999 M 149.1 5.699999999999999 L 145.1 5.699999999999999 M 145.1 5.699999999999999 M 143.1 5.699999999999999 L 139.1 5.699999999999999 M 139.1 5.699999999999999 M 137.1 5.699999999999999 L 133.1 5.699999999999999 M 133.1 5.699999999999999 M 131.1 5.699999999999999 L 127.1 5.699999999999999 M 127.1 5.699999999999999 M 125.1 5.699999999999999 L 121.1 5.699999999999999 M 121.1 5.699999999999999 M 119.1 5.699999999999999 L 115.1 5.699999999999999 M 115.1 5.699999999999999 M 113.1 5.699999999999999 L 109.1 5.699999999999999 M 109.1 5.699999999999999 M 107.1 5.699999999999999 L 103.1 5.699999999999999 M 103.1 5.699999999999999 M 101.1 5.699999999999999 L 97.1 5.699999999999999 M 97.1 5.699999999999999 M 95.1 5.699999999999999 L 91.1 5.699999999999999 M 91.1 5.699999999999999 M 89.1 5.699999999999999 L 85.1 5.699999999999999 M 85.1 5.699999999999999 M 83.1 5.699999999999999 L 79.1 5.699999999999999 M 79.1 5.699999999999999 M 77.1 5.699999999999999 L 73.1 5.699999999999999 M 73.1 5.699999999999999 M 71.1 5.699999999999999 L 67.1 5.699999999999999 M 67.1 5.699999999999999 M 65.1 5.699999999999999 L 61.099999999999994 5.699999999999999 M 61.099999999999994 5.699999999999999 M 59.099999999999994 5.699999999999999 L 55.099999999999994 5.699999999999999 M 55.099999999999994 5.699999999999999 M 53.099999999999994 5.699999999999999 L 49.099999999999994 5.699999999999999 M 49.099999999999994 5.699999999999999 M 47.099999999999994 5.699999999999999 L 43.099999999999994 5.699999999999999 M 43.099999999999994 5.699999999999999 M 41.099999999999994 5.699999999999999 L 37.099999999999994 5.699999999999999 M 37.099999999999994 5.699999999999999 M 35.099999999999994 5.699999999999999 L 31.099999999999994 5.699999999999999 M 31.099999999999994 5.699999999999999 M 29.099999999999994 5.699999999999999 L 25.099999999999994 5.699999999999999 M 25.099999999999994 5.699999999999999 M 23.099999999999994 5.699999999999999 L 19.099999999999994 5.699999999999999 M 19.099999999999994 5.699999999999999 M 17.099999999999994 5.699999999999999 L 13.099999999999994 5.699999999999999 M 13.099999999999994 5.699999999999999 M 11.099999999999994 5.699999999999999 L 7.5 5.699999999999999 Z" stroke-miterlimit="10" stroke-width="2" opacity="0"/></g></g></g></g></g><g transform="scale(1,1) matrix(1,0,0,1,565,232.5) translate(2,88)"><text fill="#000000" stroke="none" font-family="Arial" font-size="12px" font-style="normal" font-weight="normal" text-decoration="none" x="87.50000000000004" y="11">Application</text></g><g transform="translate(0,0) matrix(1,0,0,1,210,157.5)"><g><g transform="translate(0,0) scale(1,0.75)"><g><g transform="scale(1,1.3333333333333333)"><path fill="#FFFFFF" stroke="none" d="M 20 0 L 100 0 L 100 75 L 0 75 L 0 15 L 20 0 Z"/><path fill="none" stroke="#333333" d="M 20 0 M 20 0 L 100 0 L 100 75 L 0 75 L 0 15 L 20 0 Z" stroke-miterlimit="10" stroke-width="2"/></g></g></g></g></g><g transform="scale(1,1) matrix(1,0,0,1,212,157.5) translate(2,23.5)"><text fill="#000000" stroke="none" font-family="Arial" font-size="12px" font-style="normal" font-weight="normal" text-decoration="none" x="11" y="11">Request Key</text><text fill="#000000" stroke="none" font-family="Arial" font-size="12px" font-style="normal" font-weight="normal" text-decoration="none" x="17.5" y="25">Work Flow</text></g><g transform="translate(0,0) matrix(1,0,0,1,540,34)"><g><g transform="translate(0,0) scale(0.75,0.75)"><g><g transform="scale(1.3333333333333333,1.3333333333333333)"><path fill="#FFFFFF" stroke="none" d="M 75 0 L 75 65.625 Q 75 75 37.5 75 Q 0 75 0 65.625 L 0 0 Q 0 -9.375 37.5 -9.375 Q 75 -9.375 75 0 Q 75 9.375 37.5 9.375 Q 0 9.375 0 0"/><path fill="none" stroke="#333333" d="M 75 0 M 75 0 L 75 65.625 Q 75 75 37.5 75 Q 0 75 0 65.625 L 0 0 Q 0 -9.375 37.5 -9.375 Q 75 -9.375 75 0 Q 75 9.375 37.5 9.375 Q 0 9.375 0 0" stroke-miterlimit="10" stroke-width="2"/></g></g></g></g></g><g transform="scale(1,1) matrix(1,0,0,1,542,34) translate(2,9.5)"><text fill="#000000" stroke="none" font-family="Arial" font-size="12px" font-style="normal" font-weight="normal" text-decoration="none" x="5" y="11">Password </text><text fill="#000000" stroke="none" font-family="Arial" font-size="12px" font-style="normal" font-weight="normal" text-decoration="none" x="6" y="25">Protected </text><text fill="#000000" stroke="none" font-family="Arial" font-size="12px" font-style="normal" font-weight="normal" text-decoration="none" x="21.5" y="39">Key </text><text fill="#000000" stroke="none" font-family="Arial" font-size="12px" font-style="normal" font-weight="normal" text-decoration="none" x="7" y="53">Database</text></g><g transform="translate(0,0) matrix(1,0,0,1,400,147.5)"><g><g transform="translate(0,0) scale(0.95,0.95)"><g><g transform="scale(1.0526315789473684,1.0526315789473684)"><path fill="#FFFFFF" stroke="none" d="M -11.875 0 L 106.875 0 L 83.125 95 L 11.875 95 L -11.875 0 Z"/><path fill="none" stroke="#333333" d="M -11.875 0 M -11.875 0 L 106.875 0 L 83.125 95 L 11.875 95 L -11.875 0 Z" stroke-miterlimit="10" stroke-width="2"/></g></g></g></g></g><g transform="scale(1,1) matrix(1,0,0,1,402,147.5) translate(2,33.5)"><text fill="#000000" stroke="none" font-family="Arial" font-size="12px" font-style="normal" font-weight="normal" text-decoration="none" x="17.5" y="11">3rd Party </text><text fill="#000000" stroke="none" font-family="Arial" font-size="12px" font-style="normal" font-weight="normal" text-decoration="none" x="10" y="25">Oauth Login</text></g><g transform="translate(0,0) matrix(1,0,0,1,760,280)"><g><g transform="translate(0,0) scale(1,0.5)"><g><g transform="scale(1,2)"><path fill="#FFFFFF" stroke="none" d="M 0 0 L 75 0 C 88.80711874576984 0 100 11.19288125423016 100 25 C 100 38.80711874576984 88.80711874576984 50 75 50 L 0 50 L 0 0 Z"/><path fill="none" stroke="#333333" d="M 0 0 M 0 0 L 75 0 C 88.80711874576984 0 100 11.19288125423016 100 25 C 100 38.80711874576984 88.80711874576984 50 75 50 L 0 50 L 0 0 Z" stroke-miterlimit="10" stroke-width="2"/></g></g></g></g></g><g transform="scale(1,1) matrix(1,0,0,1,762,280) translate(2,18)"><text fill="#000000" stroke="none" font-family="Arial" font-size="12px" font-style="normal" font-weight="normal" text-decoration="none" x="22" y="11">Mult-Key</text></g><g transform="translate(0,0) matrix(0.866025403784438,-0.5000000000000012,0.5000000000000012,0.866025403784438,441.6987298107781,126.33974596215567)"><g><g transform="translate(0,0) scale(1,0.2)"><g><g transform="scale(1,5)"><path fill="#FFFFFF" stroke="none" d="M 0 10 L 10 0 L 10 6 L 90 6 L 90 0 L 100 10 L 90 20 L 90 14 L 10 14 L 10 20 L 0 10 Z"/><path fill="none" stroke="#333333" d="M 0 10 M 0 10 L 10 0 L 10 6 L 90 6 L 90 0 L 100 10 L 90 20 L 90 14 L 10 14 L 10 20 L 0 10 Z" stroke-miterlimit="10" stroke-width="2"/></g></g></g></g></g><g transform="translate(0,0) matrix(1,0,0,1,330,187.5)"><g><g transform="translate(0,0) scale(0.5,0.15)"><g><g transform="scale(2,6.666666666666667)"><path fill="#FFFFFF" stroke="none" d="M 0 4.5 L 42.5 4.5 L 42.5 0 L 50 7.5 L 42.5 15 L 42.5 10.5 L 0 10.5 L 0 4.5 Z"/><path fill="none" stroke="#333333" d="M 0 4.5 M 0 4.5 L 42.5 4.5 L 42.5 0 L 50 7.5 L 42.5 15 L 42.5 10.5 L 0 10.5 L 0 4.5 Z" stroke-miterlimit="10" stroke-width="2"/></g></g></g></g></g><g transform="translate(0,0) matrix(1,0,0,1,540,340)"><g><g transform="translate(0,0) scale(0.675,0.6)"><g><g transform="scale(1.4814814814814814,1.6666666666666667)"><path fill="#FFFFFF" stroke="none" d="M 8.4375 0 L 75.9375 0 Q 59.06250000000001 30 75.9375 60 L 8.4375 60 Q -8.4375 30 8.4375 0 Z"/><path fill="none" stroke="#333333" d="M 8.4375 0 M 8.4375 0 L 75.9375 0 Q 59.06250000000001 30 75.9375 60 L 8.4375 60 Q -8.4375 30 8.4375 0 Z" stroke-miterlimit="10" stroke-width="2"/></g></g></g></g></g><g transform="scale(1,1) matrix(1,0,0,1,542,340) translate(2,9)"><text fill="#000000" stroke="none" font-family="Arial" font-size="12px" font-style="normal" font-weight="normal" text-decoration="none" x="17.25" y="11">App </text><text fill="#000000" stroke="none" font-family="Arial" font-size="12px" font-style="normal" font-weight="normal" text-decoration="none" x="0.75" y="25">contain its </text><text fill="#000000" stroke="none" font-family="Arial" font-size="12px" font-style="normal" font-weight="normal" text-decoration="none" x="7.25" y="39">own key</text></g><g transform="translate(0,0) matrix(1,0,0,1,760,340)"><g><g transform="translate(0,0) scale(1,0.5)"><g><g transform="scale(1,2)"><path fill="#FFFFFF" stroke="none" d="M 0 0 L 75 0 C 88.80711874576984 0 100 11.19288125423016 100 25 C 100 38.80711874576984 88.80711874576984 50 75 50 L 0 50 L 0 0 Z"/><path fill="none" stroke="#333333" d="M 0 0 M 0 0 L 75 0 C 88.80711874576984 0 100 11.19288125423016 100 25 C 100 38.80711874576984 88.80711874576984 50 75 50 L 0 50 L 0 0 Z" stroke-miterlimit="10" stroke-width="2"/></g></g></g></g></g><g transform="scale(1,1) matrix(1,0,0,1,762,340) translate(2,11)"><text fill="#000000" stroke="none" font-family="Arial" font-size="12px" font-style="normal" font-weight="normal" text-decoration="none" x="13" y="11">Request for </text><text fill="#000000" stroke="none" font-family="Arial" font-size="12px" font-style="normal" font-weight="normal" text-decoration="none" x="18.5" y="25">Share key</text></g><g transform="translate(0,0) matrix(0.8660254037844387,0.5,-0.5,0.8660254037844387,486.1634757729337,202.17708718850287)"><g><g transform="translate(0,0) scale(1.2,0.325)"><g><g transform="scale(0.8333333333333334,3.0769230769230766)"><path fill="#FFFFFF" stroke="none" d="M 0 16.25 L 16.25 0 L 16.25 9.75 L 103.74999999999999 9.75 L 103.74999999999999 0 L 120 16.25 L 103.74999999999999 32.5 L 103.74999999999999 22.75 L 16.25 22.75 L 16.25 32.5 L 0 16.25 Z"/><path fill="none" stroke="#333333" d="M 0 16.25 M 0 16.25 L 16.25 0 L 16.25 9.75 L 103.74999999999999 9.75 L 103.74999999999999 0 L 120 16.25 L 103.74999999999999 32.5 L 103.74999999999999 22.75 L 16.25 22.75 L 16.25 32.5 L 0 16.25 Z" stroke-miterlimit="10" stroke-width="2"/></g></g></g></g></g></g></svg>