<svg version="1.1" xmlns="http://www.w3.org/2000/svg" xmlns:xlink="http://www.w3.org/1999/xlink" width="870.0000000000001" height="399.01650429449546"><defs/><g transform="translate(0,0)"><g><rect fill="#FFFFFF" stroke="none" x="0" y="0" width="870.0000000000001" height="399.01650429449546"/></g><g transform="translate(0,0) matrix(1,0,0,1,180,279.0165042944955)"><g><g transform="translate(0,0) scale(1,0.5)"><g><g transform="scale(1,2)"><path fill="#FFFFFF" stroke="none" d="M 25 0 L 75 0 C 88.80711874576984 0 100 11.19288125423016 100 25 C 100 38.80711874576984 88.80711874576984 50 75 50 L 25 50 C 11.19288125423016 50 0 38.80711874576984 0 25 C 0 11.19288125423016 11.19288125423016 0 25 0 Z"/><path fill="none" stroke="#333333" d="M 25 0 M 25 0 L 75 0 C 88.80711874576984 0 100 11.19288125423016 100 25 C 100 38.80711874576984 88.80711874576984 50 75 50 L 25 50 C 11.19288125423016 50 0 38.80711874576984 0 25 C 0 11.19288125423016 11.19288125423016 0 25 0 Z" stroke-miterlimit="10" stroke-width="2"/></g></g></g></g></g><g transform="scale(1,1) matrix(1,0,0,1,182,279.0165042944955) translate(2,18)"><text fill="#000000" stroke="none" font-family="Arial" font-size="12px" font-style="normal" font-weight="normal" text-decoration="none" x="19" y="11">Use Case</text></g><g transform="translate(0,0) matrix(1,0,0,1,380,256.5165042944955)"><g><g transform="translate(0,0) scale(0.95,0.95)"><g><g transform="scale(1.0526315789473684,1.0526315789473684)"><path fill="#FFFFFF" stroke="none" d="M -11.875 0 L 106.875 0 L 83.125 95 L 11.875 95 L -11.875 0 Z"/><path fill="none" stroke="#333333" d="M -11.875 0 M -11.875 0 L 106.875 0 L 83.125 95 L 11.875 95 L -11.875 0 Z" stroke-miterlimit="10" stroke-width="2"/></g></g></g></g></g><g transform="scale(1,1) matrix(1,0,0,1,382,256.5165042944955) translate(2,40.5)"><text fill="#000000" stroke="none" font-family="Arial" font-size="12px" font-style="normal" font-weight="normal" text-decoration="none" x="15" y="11">Install App</text></g><g transform="translate(0,0) matrix(1,0,0,1,280,279.0165042944955)"><g><g transform="translate(0,0) scale(1,0.5)"><g><g transform="scale(1,2)"><path fill="#FFFFFF" stroke="none" d="M 0 15 L 75 15 L 75 0 L 100 25 L 75 50 L 75 35 L 0 35 L 0 15 Z"/><path fill="none" stroke="#333333" d="M 0 15 M 0 15 L 75 15 L 75 0 L 100 25 L 75 50 L 75 35 L 0 35 L 0 15 Z" stroke-miterlimit="10" stroke-width="2"/></g></g></g></g></g><g transform="translate(0,0) matrix(-0.7071067811865476,-0.7071067811865474,0.7071067811865474,-0.7071067811865476,375.90990257669733,253.03300858899104)"><g><g transform="translate(0,0) scale(0.6,0.15)"><g><g transform="scale(1.6666666666666667,6.666666666666667)"><path fill="#FFFFFF" stroke="none" d="M 0 4.5 L 52.5 4.5 L 52.5 0 L 60 7.5 L 52.5 15 L 52.5 10.5 L 0 10.5 L 0 4.5 Z"/><path fill="none" stroke="#333333" d="M 0 4.5 M 0 4.5 L 52.5 4.5 L 52.5 0 L 60 7.5 L 52.5 15 L 52.5 10.5 L 0 10.5 L 0 4.5 Z" stroke-miterlimit="10" stroke-width="2"/></g></g></g></g></g><g transform="translate(0,0) matrix(1,0,0,1,290,160)"><g><g transform="translate(0,0) scale(0.5,0.5)"><g><path fill="#FFFFFF" stroke="none" d="M 100 50 A 50 50 0 1 0 99.99997500000207 50.04999999166668 Z"/><g transform="scale(2,2)"><path fill="none" stroke="#333333" d="M 25 0 M 25 0 C 38.8071175 0 50 11.192882500000001 50 25 C 50 38.8071175 38.8071175 50 25 50 C 11.192882500000001 50 0 38.8071175 0 25 C 0 11.192882500000001 11.192882500000001 0 25 0 Z" stroke-miterlimit="10" stroke-width="2"/></g></g></g></g></g><g transform="scale(1,1) matrix(1,0,0,1,291.1111111111111,160) translate(2,18)"><text fill="#000000" stroke="none" font-family="Arial" font-size="12px" font-style="normal" font-weight="normal" text-decoration="none" x="11.888888888888886" y="11">iOS</text></g><g transform="translate(0,0) matrix(-1.8369701961596905e-16,-1,1,-1.8369701961596905e-16,422.5,237.5)"><g><g transform="translate(0,0) scale(0.6,0.15)"><g><g transform="scale(1.6666666666666667,6.666666666666667)"><path fill="#FFFFFF" stroke="none" d="M 0 4.5 L 52.5 4.5 L 52.5 0 L 60 7.5 L 52.5 15 L 52.5 10.5 L 0 10.5 L 0 4.5 Z"/><path fill="none" stroke="#333333" d="M 0 4.5 M 0 4.5 L 52.5 4.5 L 52.5 0 L 60 7.5 L 52.5 15 L 52.5 10.5 L 0 10.5 L 0 4.5 Z" stroke-miterlimit="10" stroke-width="2"/></g></g></g></g></g><g transform="translate(0,0) matrix(1,0,0,1,402.05555555555554,110)"><g><g transform="translate(0,0) scale(0.5,0.5)"><g><path fill="#FFFFFF" stroke="none" d="M 100 50 A 50 50 0 1 0 99.99997500000207 50.04999999166668 Z"/><g transform="scale(2,2)"><path fill="none" stroke="#333333" d="M 25 0 M 25 0 C 38.8071175 0 50 11.192882500000001 50 25 C 50 38.8071175 38.8071175 50 25 50 C 11.192882500000001 50 0 38.8071175 0 25 C 0 11.192882500000001 11.192882500000001 0 25 0 Z" stroke-miterlimit="10" stroke-width="2"/></g></g></g></g></g><g transform="scale(1,1) matrix(1,0,0,1,403.16666666666663,110) translate(2,18)"><text fill="#000000" stroke="none" font-family="Arial" font-size="12px" font-style="normal" font-weight="normal" text-decoration="none" x="0.38888888888888573" y="11">Android</text></g><g transform="translate(0,0) matrix(0.7071067811865474,-0.7071067811865476,0.7071067811865476,0.7071067811865474,473.4834957055045,243.40990257669733)"><g><g transform="translate(0,0) scale(0.6,0.15)"><g><g transform="scale(1.6666666666666667,6.666666666666667)"><path fill="#FFFFFF" stroke="none" d="M 0 4.5 L 52.5 4.5 L 52.5 0 L 60 7.5 L 52.5 15 L 52.5 10.5 L 0 10.5 L 0 4.5 Z"/><path fill="none" stroke="#333333" d="M 0 4.5 M 0 4.5 L 52.5 4.5 L 52.5 0 L 60 7.5 L 52.5 15 L 52.5 10.5 L 0 10.5 L 0 4.5 Z" stroke-miterlimit="10" stroke-width="2"/></g></g></g></g></g><g transform="translate(0,0) matrix(1,0,0,1,526.5165042944955,150)"><g><g transform="translate(0,0) scale(0.5,0.5)"><g><path fill="#FFFFFF" stroke="none" d="M 100 50 A 50 50 0 1 0 99.99997500000207 50.04999999166668 Z"/><g transform="scale(2,2)"><path fill="none" stroke="#333333" d="M 25 0 M 25 0 C 38.8071175 0 50 11.192882500000001 50 25 C 50 38.8071175 38.8071175 50 25 50 C 11.192882500000001 50 0 38.8071175 0 25 C 0 11.192882500000001 11.192882500000001 0 25 0 Z" stroke-miterlimit="10" stroke-width="2"/></g></g></g></g></g><g transform="scale(1,1) matrix(1,0,0,1,527.6276154056065,150) translate(2,18)"><text fill="#000000" stroke="none" font-family="Arial" font-size="12px" font-style="normal" font-weight="normal" text-decoration="none" x="1.8888888888888857" y="11">PureJS</text></g><g transform="translate(0,0) matrix(1,0,0,1,650,251.51650429449535)"><g><g transform="translate(0,0) scale(1,0.75)"><g><g transform="scale(1,1.3333333333333333)"><path fill="#FFFFFF" stroke="none" d="M 20 0 L 100 0 L 100 75 L 0 75 L 0 15 L 20 0 Z"/><path fill="none" stroke="#333333" d="M 20 0 M 20 0 L 100 0 L 100 75 L 0 75 L 0 15 L 20 0 Z" stroke-miterlimit="10" stroke-width="2"/></g></g></g></g></g><g transform="scale(1,1) matrix(1,0,0,1,652,251.51650429449535) translate(2,30.5)"><text fill="#000000" stroke="none" font-family="Arial" font-size="12px" font-style="normal" font-weight="normal" text-decoration="none" x="11" y="11">Request Key</text></g><g transform="translate(0,0) matrix(1,0,0,1,500,266.51650429449546)"><g><g transform="translate(0,0) scale(1,0.75)"><g><g transform="scale(1,1.3333333333333333)"><path fill="#FFFFFF" stroke="none" d="M 25 0 L 75 0 L 100 37.5 L 75 75 L 25 75 L 0 37.5 L 25 0 Z"/><path fill="none" stroke="#333333" d="M 25 0 M 25 0 L 75 0 L 100 37.5 L 75 75 L 25 75 L 0 37.5 L 25 0 Z" stroke-miterlimit="10" stroke-width="2"/></g></g></g></g></g><g transform="scale(1,1) matrix(1,0,0,1,502,266.51650429449546) translate(2,30.5)"><text fill="#000000" stroke="none" font-family="Arial" font-size="12px" font-style="normal" font-weight="normal" text-decoration="none" x="7" y="11">Actions in App</text></g><g transform="translate(0,0) matrix(1,0,0,1,750,200)"><g><g transform="translate(0,0) scale(1,0.75)"><g><g transform="scale(1,1.3333333333333333)"><path fill="#FFFFFF" stroke="none" d="M 20 0 L 100 0 L 100 75 L 0 75 L 0 15 L 20 0 Z"/><path fill="none" stroke="#333333" d="M 20 0 M 20 0 L 100 0 L 100 75 L 0 75 L 0 15 L 20 0 Z" stroke-miterlimit="10" stroke-width="2"/></g></g></g></g></g><g transform="scale(1,1) matrix(1,0,0,1,752,200) translate(2,23.5)"><text fill="#000000" stroke="none" font-family="Arial" font-size="12px" font-style="normal" font-weight="normal" text-decoration="none" x="32" y="11">Write</text><text fill="#000000" stroke="none" font-family="Arial" font-size="12px" font-style="normal" font-weight="normal" text-decoration="none" x="23" y="25">with Key</text></g><g transform="translate(0,0) matrix(1,0,0,1,750.0000000000001,304.01650429449546)"><g><g transform="translate(0,0) scale(1,0.75)"><g><g transform="scale(1,1.3333333333333333)"><path fill="#FFFFFF" stroke="none" d="M 20 0 L 100 0 L 100 75 L 0 75 L 0 15 L 20 0 Z"/><path fill="none" stroke="#333333" d="M 20 0 M 20 0 L 100 0 L 100 75 L 0 75 L 0 15 L 20 0 Z" stroke-miterlimit="10" stroke-width="2"/></g></g></g></g></g><g transform="scale(1,1) matrix(1,0,0,1,752.0000000000001,304.01650429449546) translate(2,23.5)"><text fill="#000000" stroke="none" font-family="Arial" font-size="12px" font-style="normal" font-weight="normal" text-decoration="none" x="31" y="11">Read</text><text fill="#000000" stroke="none" font-family="Arial" font-size="12px" font-style="normal" font-weight="normal" text-decoration="none" x="23" y="25">with Key</text></g><g transform="translate(0,0) matrix(1,0,0,1,600,289.0165042944953)"><g><g transform="translate(0,0) scale(0.5,0.15)"><g><g transform="scale(2,6.666666666666667)"><path fill="#FFFFFF" stroke="none" d="M 0 4.5 L 42.5 4.5 L 42.5 0 L 50 7.5 L 42.5 15 L 42.5 10.5 L 0 10.5 L 0 4.5 Z"/><path fill="none" stroke="#333333" d="M 0 4.5 M 0 4.5 L 42.5 4.5 L 42.5 0 L 50 7.5 L 42.5 15 L 42.5 10.5 L 0 10.5 L 0 4.5 Z" stroke-miterlimit="10" stroke-width="2"/></g></g></g></g></g></g></svg>